<svg xmlns="http://www.w3.org/2000/svg" height="20" viewBox="0 -960 960 960" width="20"><path d="M243-20q-69.167 0-110.583-40.917Q91-101.833 91-172v-190h112v-537l68.8 67 66-67 66 67 66-67 66 67 66.8-67 65.6 67 65.933-67 65.934 67L869-899v715q0 70.167-47.417 117.083Q774.167-20 705-20H243Zm462-128q16 0 26-10t10-26v-532H331v354h338v178q0 16 10 26t26 10ZM376-558v-82h195v82H376Zm0 127v-82h195v82H376Zm278.421-127Q639-558 626-569.868q-13-11.869-13-28.5Q613-615 625.781-627.5q12.78-12.5 29-12.5Q671-640 683-627.93t12 29Q695-582 683.071-570t-28.65 12Zm0 127Q639-431 626-442.989q-13-11.99-13-28.8 0-16.811 12.781-29.011 12.78-12.2 29-12.2Q671-513 683-501.011q12 11.99 12 28.8 0 16.811-11.929 29.011t-28.65 12.2ZM243-148h298v-86H219v62q0 16 3.5 20t20.5 4Zm-24 0v-86 86Z"/></svg>