<?xml version="1.0" encoding="utf-8"?>
<!-- Generator: Adobe Illustrator 25.2.0, SVG Export Plug-In . SVG Version: 6.00 Build 0)  -->
<svg version="1.1" id="Layer_1" xmlns="http://www.w3.org/2000/svg" xmlns:xlink="http://www.w3.org/1999/xlink" x="0px" y="0px"
	 viewBox="0 0 155 47" style="enable-background:new 0 0 155 47;" xml:space="preserve">
<style type="text/css">
	.st0{clip-path:url(#SVGID_2_);}
	.st1{fill:#377DFF;}
	.st2{opacity:0.65;fill:#377DFF;enable-background:new    ;}
	.st3{opacity:0.5;fill:#00DFFC;enable-background:new    ;}
	.st4{opacity:0.7;fill:#377DFF;enable-background:new    ;}
	.st5{fill:#FFFFFF;}
</style>
<g>
	<defs>
		<rect id="SVGID_1_" x="7.7" y="-145.2" width="154.9" height="46.1"/>
	</defs>
	<clipPath id="SVGID_2_">
		<use xlink:href="#SVGID_1_"  style="overflow:visible;"/>
	</clipPath>
	<g class="st0">
		<path class="st1" d="M66.6-107v-28.2h17.9v5.2H73.3v6.1h8.4v5.2h-8.4v11.7H66.6L66.6-107z"/>
		<path class="st1" d="M93.9-129.4v4.2c1.6-2.9,3.7-4.4,6.3-4.4v7h-1.6c-1.5,0-2.7,0.4-3.5,1.1c-0.8,0.8-1.2,2.1-1.2,3.9v10.6h-6.7
			v-22.4H93.9z"/>
		<path class="st1" d="M103.6-109.9c-2.2-2.1-3.3-4.9-3.3-8.4s1.1-6.2,3.3-8.3c2.2-2.1,4.9-3.1,8.1-3.1s5.9,1,8.1,3.1
			c2.2,2.1,3.3,4.8,3.3,8.3s-1.1,6.2-3.3,8.4c-2.2,2.2-4.9,3.2-8.1,3.2S105.8-107.8,103.6-109.9z M115-114c0.9-1,1.3-2.4,1.3-4.2
			c0-1.8-0.5-3.2-1.4-4.2c-0.9-1-2-1.4-3.3-1.4c-1.3,0-2.3,0.5-3.2,1.4c-0.9,1-1.4,2.3-1.4,4.2c0,1.9,0.5,3.2,1.4,4.2
			c0.9,1,2,1.4,3.3,1.4S114.1-113.1,115-114z"/>
		<path class="st1" d="M132.2-129.4v3.3c1.4-2.4,3.6-3.5,6.6-3.5c2.5,0,4.5,0.9,6.1,2.6c1.6,1.7,2.3,4,2.3,7v13.1h-6.7v-12.3
			c0-1.4-0.4-2.6-1.1-3.4c-0.7-0.8-1.8-1.2-3.1-1.2c-1.3,0-2.3,0.4-3.1,1.2c-0.7,0.8-1.1,1.9-1.1,3.4v12.2h-6.7v-22.4H132.2z"/>
		<path class="st1" d="M160.2-112.8h2.4v5.8h-3.4c-2.5,0-4.4-0.6-5.7-1.7c-1.3-1.1-2-3-2-5.7v-9.3h-2v-5.7h2v-5.5h6.7v5.5h4.4v5.7
			h-4.4v9.3C158.2-113.4,158.9-112.8,160.2-112.8z"/>
		<path class="st2" d="M30.7-104.1c-9.9,0-18-8-18-18c0-9.9,8-18,18-18H42c3.7,0,6.6,3,6.6,6.6v11.4
			C48.7-112.2,40.6-104.1,30.7-104.1z"/>
		<path class="st3" d="M35.7-109.2c-9.9,0-18-8-18-18c0-9.9,8-18,18-18H47c3.7,0.1,6.7,3.1,6.7,6.7v11.4
			C53.7-117.2,45.7-109.2,35.7-109.2z"/>
		<path class="st4" d="M25.7-99.1c-10,0-18-8-18-18c0-9.9,8-18,18-18H37c3.7,0,6.6,3,6.6,6.6v11.4C43.6-107.1,35.6-99.1,25.7-99.1z"
			/>
		<path class="st5" d="M25.1-111.1v-15.7h10.2v2.9h-6.4v3.4h4.8v2.9h-4.8v6.5H25.1L25.1-111.1z"/>
	</g>
</g>
<image style="overflow:visible;" width="512" height="187" xlink:href="../../../../../../Downloads/Asset 1.png"  transform="matrix(0.3564 0 0 0.3564 -13.75 -9.8276)">
</image>
</svg>
